HIERARCHY
ROOT Hips
{
	OFFSET 0.000000 0.000000 0.000000
	CHANNELS 6 Xposition Yposition Zposition Zrotation Yrotation Xrotation 
	JOINT LHipJoint
	{
		OFFSET 0.000000 0.000000 0.000000
		CHANNELS 3 Zrotation Yrotation Xrotation
		JOINT LeftUpLeg
		{
			OFFSET 1.363060 -1.794630 0.839290
			CHANNELS 3 Zrotation Yrotation Xrotation
			JOINT LeftLeg
			{
				OFFSET 2.448110 -6.726130 0.000000
				CHANNELS 3 Zrotation Yrotation Xrotation
				JOINT LeftFoot
				{
					OFFSET 2.562200 -7.039590 0.000000
					CHANNELS 3 Zrotation Yrotation Xrotation
					JOINT LeftToeBase
					{
						OFFSET 0.157640 -0.433110 2.322550
						CHANNELS 3 Zrotation Yrotation Xrotation
						End Site
						{
							OFFSET 0.000000 0.000000 0.000000
						}
					}
				}
			}
		}
	}
	JOINT RHipJoint
	{
		OFFSET 0.000000 0.000000 0.000000
		CHANNELS 3 Zrotation Yrotation Xrotation
		JOINT RightUpLeg
		{
			OFFSET -1.305520 -1.794630 0.839290
			CHANNELS 3 Zrotation Yrotation Xrotation
			JOINT RightLeg
			{
				OFFSET -2.542530 -6.985550 0.000000
				CHANNELS 3 Zrotation Yrotation Xrotation
				JOINT RightFoot
				{
					OFFSET -2.568260 -7.056230 0.000000
					CHANNELS 3 Zrotation Yrotation Xrotation
					JOINT RightToeBase
					{
						OFFSET -0.164730 -0.452590 2.363150
						CHANNELS 3 Zrotation Yrotation Xrotation
						End Site
						{
							OFFSET 0.000000 0.000000 0.000000
						}
					}
				}
			}
		}
	}
}
MOTION
Frames: 22
Frame Time: 0.008333
-2.746703 18.062682 -0.624548 -173.222432 80.595556 -159.153042 -9.772569 1.246709 4.571491 -15.645309 -7.451956 -29.028138 -1.996486 -0.286168 12.595689 0.718601 6.316652 6.712745 2.100100 0.000000 -32.836001 9.823526 -5.007527 -0.153488 7.502418 -12.025823 1.862379 2.256108 -1.002391 6.464159 0.498389 8.574828 24.399330 4.174000 0.000000 -68.195700
-2.539760 18.082325 -0.673535 -173.753068 79.737883 -159.944768 -9.811019 1.358082 4.509846 -16.429314 -6.896319 -28.386339 -2.135975 -0.287642 11.216606 0.491348 5.224043 8.760917 2.011600 0.000000 -35.538000 9.804952 -5.081741 -0.221067 7.479236 -12.246131 2.339781 2.149885 -1.097243 7.364241 0.400207 7.648974 24.483050 3.737400 -0.000000 -67.842800
-2.335085 18.090669 -0.723348 -174.201875 78.842699 -160.676084 -9.846361 1.470668 4.431773 -17.218020 -6.307316 -27.799108 -2.243572 -0.267007 10.335984 0.329162 4.360726 10.348203 1.882300 0.000000 -37.490100 9.778736 -5.140213 -0.301831 7.469688 -12.499949 2.694558 2.041255 -1.201558 8.601397 0.305065 6.607102 24.091579 3.187100 -0.000001 -67.558700
-2.132574 18.087946 -0.773679 -174.627025 77.912215 -161.404899 -9.872827 1.583551 4.348974 -17.984273 -5.746122 -27.227658 -2.316546 -0.231362 9.892101 0.229086 3.775866 11.448934 1.766301 0.000000 -38.650100 9.754133 -5.182664 -0.407491 7.437646 -12.845256 2.932492 1.931589 -1.314947 10.137459 0.212672 5.529571 23.303538 2.593200 -0.000000 -67.353600
-1.932034 18.074193 -0.824231 -175.066765 76.951942 -162.167515 -9.886522 1.694905 4.271543 -18.703789 -5.264187 -26.639205 -2.355955 -0.186189 9.822304 0.183745 3.480726 12.062097 1.697600 0.000000 -39.004100 9.740128 -5.209319 -0.547407 7.344145 -13.334105 3.054439 1.822283 -1.437055 11.939742 0.123493 4.490847 22.197263 2.017600 0.000000 -67.192100
-1.733313 18.049575 -0.874762 -175.497414 75.970866 -162.938947 -9.888918 1.802304 4.199328 -19.353544 -4.865977 -26.026430 -2.366211 -0.133124 10.094692 0.179759 3.411458 12.192369 1.670400 0.000000 -38.538600 9.739222 -5.221752 -0.721585 7.175130 -13.972950 3.078335 1.713690 -1.565584 13.943497 0.035472 3.511010 20.882259 1.489499 0.000000 -67.148100
-1.536221 18.014202 -0.924867 -175.941024 74.981635 -163.737087 -9.879449 1.902559 4.136558 -19.922872 -4.576410 -25.372317 -2.353677 -0.075191 10.649167 0.206431 3.511489 11.881613 1.672100 -0.000001 -37.336600 9.756393 -5.220038 -0.930434 6.901469 -14.767876 3.007716 1.605450 -1.699745 16.114235 -0.051569 2.614393 19.435217 1.030500 -0.000001 -67.198300
-1.340560 17.968100 -0.974318 -176.385669 73.997208 -164.542274 -9.860404 1.993909 4.081248 -20.411437 -4.380375 -24.694494 -2.326911 -0.012329 11.463806 0.249715 3.677203 11.164612 1.666500 0.000000 -35.472400 9.792933 -5.205169 -1.165972 6.514264 -15.694996 2.838726 1.497265 -1.838320 18.426277 -0.137944 1.799689 17.913313 0.643000 -0.000000 -67.259800
-1.146198 17.911420 -1.022855 -176.821468 73.032251 -165.337071 -9.834876 2.074955 4.029132 -20.824793 -4.255559 -24.011394 -2.294549 0.055635 12.512364 0.297062 3.812383 10.086542 1.620400 -0.000001 -33.073499 9.847426 -5.177244 -1.417354 6.017055 -16.705271 2.576720 1.387765 -1.979599 20.843981 -0.225748 1.040166 16.375465 0.316200 -0.000001 -67.329600
-0.953073 17.844376 -1.070259 -177.246046 72.101087 -166.109936 -9.805344 2.145456 3.976193 -21.176588 -4.175969 -23.346088 -2.264813 0.128608 13.768647 0.338476 3.842573 8.693244 1.513799 0.000000 -30.283500 9.918254 -5.135743 -1.672212 5.418821 -17.741869 2.218719 1.275692 -2.122436 23.347285 -0.316622 0.309853 14.855375 0.038000 0.000000 -67.369699
-0.761203 17.767141 -1.116394 -177.655213 71.216109 -166.846020 -9.774146 2.206466 3.917460 -21.485342 -4.105967 -22.730962 -2.244936 0.206816 15.218962 0.366431 3.711813 7.016922 1.339601 0.000000 -27.216599 10.003094 -5.080271 -1.916828 4.738255 -18.743675 1.755172 1.160143 -2.266013 25.926160 -0.412006 -0.416646 13.367440 -0.203001 -0.000000 -67.325100
-0.570688 17.680089 -1.161097 -178.064400 70.387893 -167.551521 -9.741219 2.259321 3.850455 -21.774557 -4.025015 -22.182153 -2.240346 0.288807 16.829252 0.379388 3.412541 5.093868 1.112500 -0.000000 -23.990900 10.100676 -5.009347 -2.140401 3.990320 -19.655795 1.176782 1.040516 -2.410130 28.575751 -0.512559 -1.154635 11.911336 -0.413300 0.000001 -67.132500
-0.381677 17.583617 -1.204366 -178.475547 69.623621 -168.216493 -9.706590 2.305994 3.772744 -22.065538 -3.907957 -21.726947 -2.254364 0.373741 18.583214 0.379202 2.954962 2.941608 0.854100 0.000000 -20.668400 10.208867 -4.922664 -2.330985 3.201046 -20.424579 0.466665 0.916699 -2.554744 31.295470 -0.618838 -1.917753 10.476898 -0.597600 0.000000 -66.754000
-0.194393 17.478359 -1.246106 -178.909176 68.925669 -168.852651 -9.667876 2.348182 3.684554 -22.381319 -3.750047 -21.370263 -2.288270 0.459664 20.444004 0.373231 2.388142 0.585455 0.594200 -0.000000 -17.315000 10.326954 -4.819183 -2.481651 2.385999 -21.013379 -0.387066 0.788927 -2.700418 34.083784 -0.730349 -2.706756 9.048143 -0.755200 -0.000000 -66.151500
-0.009122 17.365190 -1.286313 -179.380000 68.292331 -169.465331 -9.622322 2.387584 3.587749 -22.741529 -3.555236 -21.114007 -2.341201 0.544968 22.375860 0.371712 1.776490 -1.949200 0.357601 0.000000 -13.993200 10.453857 -4.698616 -2.586669 1.561761 -21.394049 -1.395405 0.657505 -2.847652 36.933798 -0.846501 -3.519864 7.611305 -0.884000 0.000000 -65.333100
0.173922 17.245271 -1.324967 -179.907521 67.715924 -170.068315 -9.566533 2.425696 3.485185 -23.163073 -3.337502 -20.945932 -2.410808 0.628253 24.337104 0.386282 1.191737 -4.631137 0.158400 0.000000 -10.758500 10.588956 -4.560882 -2.644290 0.735557 -21.556522 -2.561285 0.522994 -2.997237 39.833913 -0.965736 -4.345666 6.152994 -0.979100 -0.000000 -64.274200
0.354530 17.120036 -1.362059 179.493567 67.184676 -170.672749 -9.497521 2.463487 3.380460 -23.656826 -3.117211 -20.847138 -2.493513 0.708452 26.285857 0.428089 0.699975 -7.425132 -0.003900 -0.000000 -7.646200 10.731308 -4.406264 -2.654990 -0.090021 -21.502607 -3.881252 0.385689 -3.149754 42.764065 -1.086502 -5.171625 4.669350 -1.036300 -0.000000 -63.002500
0.532511 16.991265 -1.397653 178.820204 66.682943 -171.281624 -9.414478 2.501532 3.276959 -24.222528 -2.916039 -20.792863 -2.583942 0.785227 28.180254 0.505452 0.352601 -10.275552 -0.142900 0.000000 -4.821500 10.878874 -4.235484 -2.621609 -0.913339 -21.243474 -5.341696 0.245518 -3.305250 45.693723 -1.207610 -5.987419 3.168518 -1.053700 -0.000000 -61.594000
0.707845 16.860933 -1.431803 178.068582 66.193282 -171.901653 -9.316402 2.539554 3.178479 -24.856112 -2.755390 -20.754809 -2.678023 0.857601 29.983339 0.623546 0.176774 -13.143209 -0.281500 0.000000 -2.207599 11.030446 -4.049528 -2.548213 -1.742232 -20.803020 -6.925513 0.102841 -3.463705 48.592064 -1.326771 -6.774679 1.657280 -1.029100 -0.000000 -60.037701
0.880535 16.731291 -1.464726 177.261334 65.697829 -172.516806 -9.207137 2.576776 3.087008 -25.534189 -2.650183 -20.705571 -2.769654 0.925591 31.661415 0.781038 0.174609 -15.953851 -0.441300 -0.000000 -0.023600 11.182351 -3.849731 -2.440683 -2.573602 -20.205038 -8.605748 -0.042463 -3.623828 51.416605 -1.443084 -7.525935 0.159379 -0.966000 0.000000 -58.427700
1.050840 16.604680 -1.496662 176.414131 65.181442 -173.117300 -9.089198 2.611700 3.005986 -26.234550 -2.614678 -20.621449 -2.855489 0.988025 33.188379 0.972468 0.323473 -18.656911 179.361801 0.000000 -1.819299 11.332739 -3.637792 -2.303534 -3.411785 -19.478632 -10.360346 -0.189598 -3.784305 54.131642 -1.554406 -8.225535 -1.309144 -0.867600 -0.000000 -56.753700
1.219062 16.483448 -1.527988 175.561968 64.632197 -173.676827 -8.968432 2.642577 2.937025 -26.921718 -2.654022 -20.484297 -2.932211 1.044139 34.544755 1.185842 0.578369 -21.187079 179.126200 0.000000 -3.262500 11.478273 -3.415755 -2.141758 -4.250461 -18.649656 -12.163651 -0.337501 -3.942668 56.697198 -1.659458 -8.865253 -2.725489 -0.740700 -0.000000 -55.052000
